<?xml version="1.0" encoding="UTF-8"?>
<svg version="1.1" xmlns="http://www.w3.org/2000/svg" width="3000" height="3096">
<path d="M0 0 C990 0 1980 0 3000 0 C3000 1021.68 3000 2043.36 3000 3096 C2010 3096 1020 3096 0 3096 C0 2074.32 0 1052.64 0 0 Z " fill="#151515" transform="translate(0,0)"/>
<path d="M0 0 C4.0975367 0.01711892 8.19448938 0.00687083 12.29200649 -0.01032162 C29.33218294 -0.07077086 46.25002209 0.33466151 63.23486328 1.77001953 C63.96357258 1.8312009 64.69228188 1.89238228 65.44307327 1.95541763 C88.93760002 3.97668032 111.99510396 8.36064085 134.78564453 14.39111328 C135.57181152 14.59704102 136.35797852 14.80296875 137.16796875 15.01513672 C174.65159329 24.98092232 213.62586291 42.37576622 234.78564453 76.39111328 C244.27274535 93.00408095 247.17839901 109.54655051 247.09814453 128.51611328 C247.09665405 129.1923172 247.09516357 129.86852112 247.09362793 130.56521606 C247.04946022 141.75596161 246.22611658 152.46608389 243.78564453 163.39111328 C243.51880859 164.64150391 243.25197266 165.89189453 242.97705078 167.18017578 C239.09382186 183.85217194 233.78798231 200.3695807 227.78564453 216.39111328 C226.61679747 212.94672348 226.97409678 210.72112444 227.89501953 207.23486328 C228.15387939 206.22166016 228.41273926 205.20845703 228.67944336 204.16455078 C228.96198975 203.08431641 229.24453613 202.00408203 229.53564453 200.89111328 C232.3278943 189.78332304 234.38410641 178.75243608 235.78564453 167.39111328 C235.88063232 166.71209961 235.97562012 166.03308594 236.07348633 165.33349609 C236.98929531 158.28380204 236.96948109 151.24086682 236.97314453 144.14111328 C236.99151367 142.29066406 236.99151367 142.29066406 237.01025391 140.40283203 C237.05113069 114.48694924 229.4326867 91.85216966 211.66064453 72.76611328 C171.26487232 33.96399933 100.616816 34.39040815 48.6015625 35.28173828 C-34.84691896 37.00896013 -118.90653321 56.17710846 -221.80383301 89.58239746 C-224.8122056 90.59168841 -227.82591005 91.58432097 -230.84005737 92.57620239 C-285.59378067 110.62638588 -338.91376079 133.22010111 -391.21435547 157.39111328 C-392.72655634 158.08806675 -394.23876317 158.7850073 -395.75097656 159.48193359 C-415.03123377 168.38288151 -434.08532689 177.72876777 -453.08935547 187.20361328 C-454.1313208 187.72191711 -455.17328613 188.24022095 -456.24682617 188.77423096 C-469.93348007 195.59076484 -483.42771311 202.69104796 -496.81646729 210.07455444 C-500.19578828 211.92996828 -503.5926375 213.75139801 -506.99560547 215.56298828 C-508.11596191 216.15982422 -509.23631836 216.75666016 -510.390625 217.37158203 C-511.48745605 217.95552734 -512.58428711 218.53947266 -513.71435547 219.14111328 C-522.27008508 223.71035731 -530.79415218 228.30912252 -539.16992188 233.203125 C-541.75518107 234.70537855 -544.35010367 236.19041816 -546.94482422 237.67626953 C-577.04202369 254.93233169 -606.83346564 272.77029428 -635.82861328 291.82763672 C-638.2303939 293.40162393 -640.63898405 294.96458034 -643.05029297 296.52392578 C-668.15442488 312.74485569 -668.15442488 312.74485569 -692.66748047 329.83642578 C-697.14367094 333.07735482 -701.68257372 336.22865903 -706.21435547 339.39111328 C-714.25261913 345.00509029 -722.25211248 350.66989895 -730.21435547 356.39111328 C-729.78123047 357.3134375 -729.78123047 357.3134375 -729.33935547 358.25439453 C-728.96810547 359.06263672 -728.59685547 359.87087891 -728.21435547 360.70361328 C-727.84310547 361.50412109 -727.47185547 362.30462891 -727.08935547 363.12939453 C-726.21435547 365.39111328 -726.21435547 365.39111328 -726.21435547 368.39111328 C-725.78123047 368.82423828 -725.34810547 369.25736328 -724.90185547 369.70361328 C-722.6294946 371.97597415 -721.62435042 374.50300767 -720.21435547 377.39111328 C-719.03384763 379.62399069 -717.84573755 381.85285816 -716.65185547 384.07861328 C-709.22821008 397.95549291 -701.93965989 411.9031553 -694.66748047 425.85986328 C-692.00053025 430.9760535 -689.3237742 436.08671004 -686.62841797 441.18798828 C-681.40421745 451.07540135 -676.27418485 461.01050833 -671.15292358 470.95147705 C-667.22593632 478.57324515 -663.28919439 486.18880423 -659.27685547 493.76611328 C-654.6857 502.43829584 -650.20132672 511.16474783 -645.71435547 519.89111328 C-640.83805741 529.37447643 -635.94909283 538.84901432 -630.96044922 548.27392578 C-627.16516814 555.45556877 -623.44072244 562.67357409 -619.71435547 569.89111328 C-615.14949248 578.73186672 -610.56735735 587.56246041 -605.91699219 596.35864258 C-603.6378422 600.67365196 -601.37825124 604.99808392 -599.13623047 609.33251953 C-593.98857551 619.28275248 -588.80949799 629.20431776 -583.40185547 639.01611328 C-575.70577346 652.98283363 -568.48156246 667.19813034 -561.21435547 681.39111328 C-560.8123291 680.34584473 -560.41030273 679.30057617 -559.99609375 678.22363281 C-559.72765656 677.52570618 -559.45921936 676.82777954 -559.18264771 676.10870361 C-558.57460866 674.52778144 -557.96659761 672.94684851 -557.35861206 671.36590576 C-555.65622575 666.93932586 -553.95332119 662.5129464 -552.24951172 658.08691406 C-547.86856553 646.70596626 -547.86856553 646.70596626 -543.51904297 635.31298828 C-529.43925628 598.31364035 -513.8012588 562.45342537 -496.15185547 527.01611328 C-495.65074249 526.00825775 -495.14962952 525.00040222 -494.6333313 523.96200562 C-487.88455296 510.41016256 -480.86733315 497.03597732 -473.53968811 483.78807068 C-471.83619763 480.70718821 -470.14308957 477.62065395 -468.45028687 474.53388977 C-462.55470047 463.82577974 -456.36679267 453.28793269 -450.1796875 442.74658203 C-448.46308686 439.81577964 -446.75267199 436.88154148 -445.04562378 433.94517517 C-437.19722343 420.44548073 -429.27940714 407.01780684 -420.81884766 393.88916016 C-418.99397543 391.04800181 -417.18582455 388.19653788 -415.37841797 385.34423828 C-407.23535294 372.51614893 -398.90226726 359.85615088 -390.21435547 347.39111328 C-389.65006836 346.57835937 -389.08578125 345.76560547 -388.50439453 344.92822266 C-377.52151079 329.11238004 -366.4580666 313.34931353 -354.60107422 298.17236328 C-353.01632399 296.13674046 -351.44334459 294.09227916 -349.87060547 292.04736328 C-343.66167248 283.99209417 -337.35960685 276.06053107 -330.73388672 268.34423828 C-328.30619411 265.49875671 -325.94118487 262.61192045 -323.58935547 259.70361328 C-319.96250266 255.24776554 -316.18772877 250.95879773 -312.31982422 246.71142578 C-310.48517861 244.68957144 -308.68666761 242.64432806 -306.90185547 240.57861328 C-298.18212562 230.59371448 -289.02924919 221.03990451 -279.64013672 211.68652344 C-277.947542 209.9993537 -276.2604495 208.30681133 -274.57373047 206.61376953 C-268.95583426 200.99212658 -263.28735838 195.52532759 -257.21435547 190.39111328 C-256.13080493 189.44232473 -255.04872602 188.4918524 -253.96826172 187.53955078 C-206.90197984 146.47830253 -152.4414138 115.06080259 -88.21435547 119.39111328 C-66.3330762 121.67829464 -46.44751519 129.00979016 -27.21435547 139.39111328 C-26.19212891 139.93251953 -25.16990234 140.47392578 -24.11669922 141.03173828 C-10.47760755 148.59473393 1.62791731 158.56398538 12.78564453 169.39111328 C13.37732422 169.95701172 13.96900391 170.52291016 14.57861328 171.10595703 C22.93362294 179.11643021 30.58869084 187.33910419 37.48388672 196.640625 C38.78876957 198.39531555 40.11703195 200.13012547 41.44970703 201.86376953 C54.83425849 219.46215537 65.64400497 238.78976619 75.78564453 258.39111328 C76.21409668 259.2191748 76.64254883 260.04723633 77.08398438 260.90039062 C89.33830456 284.91096808 99.56877076 310.7235759 107.78564453 336.39111328 C108.12225098 337.43509277 108.45885742 338.47907227 108.80566406 339.5546875 C114.62487776 357.69905219 119.89441302 375.97611254 124.78564453 394.39111328 C125.04410156 395.35629883 125.30255859 396.32148437 125.56884766 397.31591797 C131.10742552 418.14835552 135.40044016 439.29241471 139.78564453 460.39111328 C140.04764648 461.64746582 140.30964844 462.90381836 140.57958984 464.19824219 C144.29681811 482.20207095 147.02943978 500.35352237 149.74960327 518.52879333 C150.43496708 523.09907558 151.1414583 527.66488489 151.87939453 532.22705078 C163.22302801 602.5227785 168.16457944 674.07442799 171.47314453 745.14111328 C171.56455215 747.09303085 171.56455215 747.09303085 171.6578064 749.0843811 C172.07789444 758.18503603 172.45030904 767.28695739 172.78564453 776.39111328 C172.8347699 777.70658142 172.88389526 779.02204956 172.93450928 780.37738037 C174.04395756 810.88051005 174.03101758 841.40174265 174.0353322 871.92125177 C174.03564694 874.03227278 174.03631235 876.1432935 174.03698349 878.25431442 C174.04775531 925.82403381 173.3770475 973.29950591 170.91885376 1020.81330872 C170.78046594 1023.49132702 170.64369101 1026.16942468 170.50708008 1028.84753418 C168.45913638 1068.85697441 166.39482865 1108.88809864 162.25634766 1148.74511719 C161.75808266 1153.58553374 161.32449963 1158.43090555 160.89501953 1163.27783203 C157.37654138 1202.522817 152.33040361 1241.70739783 144.78564453 1280.39111328 C144.65307251 1281.07550476 144.52050049 1281.75989624 144.38391113 1282.46502686 C131.31942944 1349.83253069 115.11702979 1428.82606825 69.78564453 1482.39111328 C69.17462891 1483.14779297 68.56361328 1483.90447266 67.93408203 1484.68408203 C58.80469329 1495.59802207 44.59770887 1506.4808986 29.99267578 1508.23095703 C6.88088241 1509.90809602 -9.97113453 1501.53957312 -27.49169922 1486.86767578 C-35.1219781 1479.92707777 -41.67322005 1471.96830662 -48.13232422 1463.94970703 C-51.06493203 1460.34584565 -54.12360178 1456.85951533 -57.21435547 1453.39111328 C-56.88435547 1452.73111328 -56.55435547 1452.07111328 -56.21435547 1451.39111328 C-55.58529297 1452.03177734 -54.95623047 1452.67244141 -54.30810547 1453.33251953 C-49.11409442 1458.58128672 -43.89247154 1463.67029942 -38.21435547 1468.39111328 C-37.70308105 1468.82149902 -37.19180664 1469.25188477 -36.66503906 1469.6953125 C-19.56586174 1484.0279468 -0.72603238 1498.1369604 22.51220703 1497.70361328 C35.09181752 1496.50269581 45.82300604 1488.84488258 53.78564453 1479.39111328 C67.67751091 1461.31774866 75.92349435 1439.93165956 82.78564453 1418.39111328 C83.24148926 1416.98394043 83.24148926 1416.98394043 83.70654297 1415.54833984 C95.01012615 1380.50361291 102.01285944 1344.03839741 106.51712036 1307.52859497 C106.83179199 1305.02377451 107.16025821 1302.52089686 107.48852539 1300.01782227 C109.18019071 1286.99820796 110.56364318 1273.98479433 111.61108398 1260.89770508 C111.84350389 1258.01124612 112.08842573 1255.12604774 112.33447266 1252.24072266 C112.88405761 1245.62840939 113.35044427 1239.01187784 113.78564453 1232.39111328 C113.83021412 1231.71837498 113.87478371 1231.04563667 113.92070389 1230.35251236 C116.00217913 1198.59462295 116.14719377 1166.84777246 116.10329819 1135.03179932 C116.09858135 1131.59877315 116.09663297 1128.16575163 116.09544295 1124.73272264 C116.07991279 1084.60780682 115.64752421 1044.58803211 112.99133301 1004.53686523 C112.78858471 1001.43607974 112.59858577 998.33480073 112.41357422 995.23291016 C111.66015268 982.60871749 110.783456 969.99829303 109.78564453 957.39111328 C109.68153259 956.06723602 109.68153259 956.06723602 109.57531738 954.71661377 C105.28662845 900.414782 99.02051521 846.36946596 91.78564453 792.39111328 C91.64260895 791.31725372 91.49957336 790.24339417 91.35220337 789.13699341 C90.94943704 786.11462486 90.5438582 783.0926488 90.13720703 780.07080078 C90.02081375 779.19643875 89.90442047 778.32207672 89.78450012 777.42121887 C89.1145061 772.4801916 88.3064746 767.59709688 87.34814453 762.70361328 C87.20787842 761.98705566 87.0676123 761.27049805 86.9230957 760.53222656 C86.8094165 759.9519873 86.6957373 759.37174805 86.57861328 758.77392578 C85.79729165 754.61648742 85.19951037 750.44142823 84.60913086 746.25317383 C77.23403766 694.04939762 67.06012085 642.00222837 54.81738281 590.72998047 C53.80825452 586.49876265 52.8227377 582.2623185 51.84423828 578.02392578 C47.39794273 558.77731846 42.78062581 539.61409156 37.40625 520.60449219 C36.78360697 518.38384634 36.17506842 516.15979306 35.57080078 513.93408203 C33.27090858 505.48670243 30.80695408 497.11418411 28.12937927 488.77848816 C26.60258998 484.0165527 25.13407252 479.24200563 23.72042847 474.44534302 C20.45555765 463.37976051 16.8964308 452.43087759 13.16064453 441.51611328 C12.85950745 440.63469666 12.55837036 439.75328003 12.24810791 438.84515381 C-5.52650783 386.97134411 -27.56926026 333.50631666 -62.21435547 290.39111328 C-62.89232178 289.54492432 -62.89232178 289.54492432 -63.58398438 288.68164062 C-73.60393939 276.27964622 -86.56929359 262.11254925 -103.21435547 259.39111328 C-123.58714402 257.76870691 -137.32623895 266.51025632 -152.46435547 279.39111328 C-159.96192831 285.8930429 -166.94608445 292.76929269 -173.40966797 300.30517578 C-175.43086823 302.64136829 -177.50814386 304.92076179 -179.58935547 307.20361328 C-183.84485349 311.92399764 -187.87366074 316.79770657 -191.87011719 321.73779297 C-194.54957289 325.03333855 -197.26054173 328.30305175 -199.96435547 331.57861328 C-205.66953582 338.49919834 -211.34028167 345.44685319 -216.98779297 352.41455078 C-219.17443961 355.11225787 -221.36762281 357.80445297 -223.56591797 360.49267578 C-229.34249131 367.56295208 -235.03438299 374.67663403 -240.56982422 381.93798828 C-242.51220812 384.48405584 -244.47703392 387.01136028 -246.45263672 389.53173828 C-264.15320333 412.11822993 -280.6442732 435.51681653 -296.76074219 459.25244141 C-297.66892957 460.58863916 -298.57908488 461.92350394 -299.4921875 463.25634766 C-332.96891799 512.12389213 -360.26065459 565.30341151 -384.21435547 619.39111328 C-384.48745544 620.00756714 -384.76055542 620.624021 -385.04193115 621.25915527 C-395.08268835 643.95448802 -404.58520662 666.88154109 -414.12982178 689.78851318 C-415.1661912 692.27553149 -416.20308932 694.7623285 -417.24023438 697.24902344 C-422.50592713 709.87426883 -427.77081027 722.49986189 -433.01318359 735.1348114 C-437.06269514 744.89427367 -441.12655245 754.64762222 -445.21435547 764.39111328 C-445.53551331 765.1567157 -445.85667114 765.92231812 -446.18756104 766.71112061 C-464.56007098 810.46840074 -483.45486523 854.359208 -529.67529297 874.46142578 C-544.50663979 880.31440939 -565.62243771 879.6197976 -580.21435547 873.39111328 C-590.01667609 869.13180086 -598.87738202 864.13114534 -607.21435547 857.39111328 C-607.75801758 856.9634668 -608.30167969 856.53582031 -608.86181641 856.09521484 C-621.99313391 845.71759248 -631.24590477 833.44932342 -640.21435547 819.39111328 C-640.64296875 818.72547363 -641.07158203 818.05983398 -641.51318359 817.37402344 C-649.74972841 804.57530342 -657.5537297 791.54098563 -665.21435547 778.39111328 C-666.09414062 776.88484375 -666.09414062 776.88484375 -666.99169922 775.34814453 C-681.35847446 750.72380073 -695.01860939 725.72998211 -708.48779297 700.60595703 C-710.24533063 697.33343781 -712.01001185 694.06486665 -713.77685547 690.79736328 C-720.91103332 677.5980613 -727.9263508 664.34364542 -734.84130859 651.02832031 C-736.95156999 646.97514756 -739.08238736 642.93289842 -741.21435547 638.89111328 C-749.93135243 622.35148324 -758.5486933 605.7601064 -767.14306641 589.15649414 C-770.08368519 583.48048218 -773.0409137 577.81453607 -776.03857422 572.16845703 C-780.93056057 562.95331996 -785.61277192 553.63894133 -790.256073 544.29669189 C-793.67301728 537.42326521 -797.11601551 530.57563695 -800.77685547 523.82861328 C-809.21435547 508.22377457 -809.21435547 508.22377457 -809.21435547 504.39111328 C-809.87435547 504.39111328 -810.53435547 504.39111328 -811.21435547 504.39111328 C-815.92864118 494.08676546 -815.92864118 494.08676546 -817.65185547 489.89111328 C-820.59993933 483.28740543 -824.25730626 477.0486786 -827.86279297 470.78564453 C-828.32226318 469.97909424 -828.7817334 469.17254395 -829.25512695 468.34155273 C-830.1783294 466.72187384 -831.11001067 465.10699533 -832.05053711 463.49731445 C-832.47455811 462.75070557 -832.8985791 462.00409668 -833.33544922 461.23486328 C-833.72144287 460.56648438 -834.10743652 459.89810547 -834.50512695 459.20947266 C-835.21435547 457.39111328 -835.21435547 457.39111328 -834.21435547 454.39111328 C-834.87435547 454.39111328 -835.53435547 454.39111328 -836.21435547 454.39111328 C-837.99741071 451.75219152 -839.20495168 449.41932465 -840.21435547 446.39111328 C-838.31309228 442.42636308 -835.66013698 439.62107504 -832.52685547 436.57861328 C-831.71861328 435.78841797 -830.91037109 434.99822266 -830.07763672 434.18408203 C-829.1553125 433.2965625 -829.1553125 433.2965625 -828.21435547 432.39111328 C-833.66727526 436.94029867 -838.73244896 441.76288625 -843.74560547 446.78955078 C-844.54035278 447.58334137 -845.3351001 448.37713196 -846.15393066 449.19497681 C-847.82585457 450.86622347 -849.49652937 452.53872059 -851.16601562 454.21240234 C-853.70315205 456.75488625 -856.24557008 459.29199984 -858.78857422 461.82861328 C-860.42040527 463.46110534 -862.05192599 465.09390767 -863.68310547 466.72705078 C-864.80996765 467.85087662 -864.80996765 467.85087662 -865.95959473 468.99740601 C-870.0252929 473.08096222 -873.90719921 477.26015853 -877.6697998 481.62417603 C-879.62566235 483.86163918 -881.6899798 485.96361657 -883.80810547 488.04736328 C-884.61119141 488.84271484 -885.41427734 489.63806641 -886.24169922 490.45751953 C-887.89013672 492.07991536 -889.53857422 493.7023112 -891.18701172 495.32470703 C-895.46554546 499.56203499 -899.57686629 503.85657042 -903.49853516 508.42578125 C-906.58184492 511.95746076 -909.85215246 515.31363113 -913.08935547 518.70361328 C-918.35972088 524.2586677 -923.38985827 529.86617836 -928.15185547 535.86376953 C-930.36733351 538.57856933 -932.70476013 541.13644737 -935.08935547 543.70361328 C-939.81318793 548.84296805 -944.11016359 554.22467622 -948.37451172 559.74267578 C-950.24532346 562.16175096 -952.14664095 564.54963802 -954.08544922 566.91455078 C-968.97996392 585.11038852 -982.11631068 604.77848615 -993.96435547 625.07861328 C-994.3880542 625.80185791 -994.81175293 626.52510254 -995.24829102 627.27026367 C-996.11572108 628.77791179 -996.96263382 630.29749402 -997.79199219 631.82641602 C-998.80612869 633.65502981 -999.88907645 635.44617643 -1001.015625 637.20776367 C-1007.70131276 648.59359246 -1007.84884805 660.51348051 -1008.58935547 673.45361328 C-1008.73900425 675.66929174 -1008.8913332 677.88479086 -1009.04638672 680.10009766 C-1009.67550779 689.32268313 -1010.19027506 698.54723216 -1010.58557129 707.78269958 C-1011.01923335 717.88376251 -1011.88768855 727.85447454 -1013.08935547 737.89111328 C-1013.45542264 741.03011545 -1013.81721891 744.16960632 -1014.17919922 747.30908203 C-1014.26909622 748.08265549 -1014.35899323 748.85622894 -1014.45161438 749.65324402 C-1015.14432771 755.65423116 -1015.73916819 761.66190059 -1016.31201172 767.67553711 C-1026.82498627 876.81561985 -1026.82498627 876.81561985 -1056.21435547 903.39111328 C-1071.61118664 915.81927439 -1089.37504439 916.86979964 -1108.34960938 915.20361328 C-1121.7969875 913.64247687 -1135.27462689 906.42195618 -1145.21435547 897.39111328 C-1145.95943359 896.73755859 -1146.70451172 896.08400391 -1147.47216797 895.41064453 C-1169.54242941 874.87407922 -1173.39935782 841.75085203 -1177.21435547 813.39111328 C-1177.33294922 812.55273926 -1177.45154297 811.71436523 -1177.57373047 810.85058594 C-1185.66135534 751.48116109 -1175.95595669 683.19847972 -1150.96003723 628.65402222 C-1147.63128106 621.33832999 -1146.28191824 614.85036367 -1145.73779297 606.86767578 C-1145.64218079 605.70186478 -1145.5465686 604.53605377 -1145.44805908 603.33491516 C-1145.14316421 599.56319304 -1144.86621727 595.78998693 -1144.58935547 592.01611328 C-1144.37947977 589.364332 -1144.1679533 586.71273713 -1143.95410156 584.0612793 C-1143.35056273 576.50627572 -1142.77858767 568.94913926 -1142.21435547 561.39111328 C-1141.81234397 556.0588449 -1141.40799435 550.72675448 -1140.99816895 545.39508057 C-1140.89139605 544.00576078 -1140.78520438 542.61639621 -1140.67956543 541.22698975 C-1138.69823312 515.34611064 -1136.0349096 489.51522552 -1133.51028442 463.68289185 C-1132.73059481 455.70450164 -1131.95767803 447.72558309 -1131.19992065 439.74507141 C-1128.37245395 410.00561135 -1124.85225583 380.38046046 -1121.03125 350.75292969 C-1120.29458169 345.03390762 -1119.57700316 339.31267945 -1118.86669922 333.59033203 C-1116.02767727 310.79829377 -1112.77695787 288.08121509 -1109.21435547 265.39111328 C-1109.03419891 264.23962799 -1109.03419891 264.23962799 -1108.85040283 263.06488037 C-1101.90793947 218.76867567 -1093.66762414 174.22237816 -1080.21435547 131.39111328 C-1079.91062012 130.41029785 -1079.60688477 129.42948242 -1079.29394531 128.41894531 C-1067.99305547 92.17533537 -1051.94893913 56.93976673 -1019.21435547 35.39111328 C-1018.40482422 34.84841797 -1017.59529297 34.30572266 -1016.76123047 33.74658203 C-1003.53494802 25.32016015 -990.10681332 22.26666456 -974.65185547 22.14111328 C-973.77722656 22.13168701 -972.90259766 22.12226074 -972.00146484 22.11254883 C-963.02546265 22.15715949 -954.76136567 23.85196657 -946.40185547 27.07861328 C-945.71881348 27.34134033 -945.03577148 27.60406738 -944.33203125 27.87475586 C-906.35648738 42.87673066 -885.6198949 76.31668269 -866.09228516 110.13964844 C-864.2232372 113.37573537 -862.34825187 116.60831999 -860.47216797 119.84033203 C-853.64369422 131.62075917 -846.90843405 143.44865265 -840.27734375 155.34130859 C-836.59252827 161.94661965 -832.85940201 168.52163472 -829.08935547 175.07861328 C-823.96095675 184.00932055 -819.01413349 193.03197693 -814.10107422 202.08251953 C-811.39124345 207.07335874 -808.65715315 212.05023737 -805.90185547 217.01611328 C-805.49136963 217.75595459 -805.08088379 218.4957959 -804.65795898 219.25805664 C-802.33844771 223.42148746 -799.95999125 227.54263123 -797.52685547 231.64111328 C-793.74399984 238.05395426 -790.47059039 244.70049077 -787.21435547 251.39111328 C-783.1638279 250.14291669 -779.61212723 248.65389662 -775.93310547 246.55517578 C-774.44037109 245.71007446 -774.44037109 245.71007446 -772.91748047 244.84790039 C-771.86044922 244.24341064 -770.80341797 243.6389209 -769.71435547 243.01611328 C-767.45445475 241.73785694 -765.19402853 240.46052925 -762.93310547 239.18408203 C-761.23541016 238.22381104 -761.23541016 238.22381104 -759.50341797 237.24414062 C-744.89501953 229.01390427 -730.08163859 221.18610157 -715.18701172 213.48876953 C-711.49582481 211.57998089 -707.81456055 209.65528174 -704.14794922 207.69970703 C-695.24011947 202.9488645 -686.26580634 198.41756383 -677.11962891 194.14038086 C-671.91961885 191.70478019 -666.77308776 189.17874945 -661.64404297 186.59814453 C-653.16520257 182.33770791 -644.61076449 178.24746854 -636.02685547 174.20361328 C-635.24789917 173.8363916 -634.46894287 173.46916992 -633.66638184 173.09082031 C-593.44589322 154.14672736 -552.5161552 136.83270366 -511.21435547 120.39111328 C-510.41251831 120.0716272 -509.61068115 119.75214111 -508.7845459 119.42297363 C-488.10166688 111.18858896 -467.32604298 103.24257021 -446.40185547 95.64111328 C-445.47001434 95.30250275 -444.53817322 94.96389221 -443.57809448 94.61502075 C-434.83510374 91.44352564 -426.09019548 88.29747518 -417.25268555 85.39746094 C-413.4739955 84.14589321 -409.71141977 82.85000987 -405.94873047 81.55126953 C-405.21882401 81.29975128 -404.48891754 81.04823303 -403.7368927 80.78909302 C-400.72937362 79.75266817 -397.72201704 78.71579216 -394.71582031 77.67553711 C-384.92161415 74.28802717 -375.09765374 71.05034165 -365.19262695 68.00222778 C-361.83907917 66.96627205 -358.49197837 65.90987776 -355.14404297 64.85595703 C-353.13095668 64.22405467 -351.11772789 63.59260779 -349.10449219 62.96118164 C-347.75729643 62.53828557 -346.41029202 62.11477949 -345.06347656 61.69067383 C-335.81835509 58.78025519 -326.54309541 56.02432903 -317.21435547 53.39111328 C-315.46121315 52.88385494 -313.70855975 52.37490183 -311.95654297 51.86376953 C-302.51511998 49.12258847 -293.05581811 46.55078403 -283.50683594 44.21118164 C-278.21251504 42.90861063 -272.95891876 41.50545136 -267.71435547 40.01611328 C-235.5721035 30.9849384 -202.87109056 24.4022651 -170.12915039 17.96948242 C-167.97956105 17.54294945 -165.83150152 17.10868934 -163.68432617 16.67016602 C-142.48362503 12.35628422 -121.05713747 9.39738977 -99.60446167 6.65249634 C-97.65920857 6.40321396 -95.71429333 6.15127387 -93.76980591 5.89608765 C-62.5778125 1.82359248 -31.44684826 -0.13219957 0 0 Z M-826.21435547 429.39111328 C-826.54435547 430.05111328 -826.87435547 430.71111328 -827.21435547 431.39111328 C-826.55435547 431.39111328 -825.89435547 431.39111328 -825.21435547 431.39111328 C-825.54435547 430.73111328 -825.87435547 430.07111328 -826.21435547 429.39111328 Z " fill="#F2F2F2" transform="translate(1940.21435546875,951.60888671875)"/>
<path d="M0 0 C0.33 0.66 0.66 1.32 1 2 C0.67 2.66 0.34 3.32 0 4 C-0.19820305 5.52013033 -0.34483294 7.04714692 -0.46484375 8.57543945 C-0.54162354 9.52856522 -0.61840332 10.48169098 -0.69750977 11.46369934 C-0.81630493 13.02274239 -0.81630493 13.02274239 -0.9375 14.61328125 C-1.06499634 16.23232613 -1.06499634 16.23232613 -1.19506836 17.88407898 C-1.37523471 20.18485005 -1.55331152 22.48578553 -1.72949219 24.78686523 C-1.99387814 28.23271145 -2.26589335 31.67788721 -2.5390625 35.12304688 C-3.3455014 45.43649507 -4.07753868 55.73774544 -4.5078125 66.07421875 C-4.8969539 75.27506854 -5.78060881 84.35935647 -6.875 93.5 C-7.24106717 96.63900217 -7.60286344 99.77849304 -7.96484375 102.91796875 C-8.09968925 104.07832893 -8.09968925 104.07832893 -8.23725891 105.26213074 C-8.92997224 111.26311788 -9.52481272 117.27078731 -10.09765625 123.28442383 C-20.6106308 232.42450657 -20.6106308 232.42450657 -50 259 C-65.39683117 271.42816111 -83.16068892 272.47868636 -102.13525391 270.8125 C-118.36223583 268.92867313 -133.85402499 259.51161685 -144 247 C-142.52122246 244.18729525 -141.04190299 241.37487583 -139.5625 238.5625 C-139.1102002 237.70229248 -138.65790039 236.84208496 -138.19189453 235.95581055 C-136.0077414 231.80439489 -133.8197645 227.65522189 -131.61328125 223.515625 C-128.00394068 216.74030576 -124.45517301 209.9491834 -121.0625 203.0625 C-117.778539 196.40271316 -114.2204822 189.92122184 -110.58154297 183.44970703 C-107.71120678 178.32991903 -105.00058051 173.15893185 -102.44921875 167.87109375 C-98.24194528 159.53592932 -93.42774989 151.51360006 -88.75 143.4375 C-84.52090428 136.12732528 -80.30441777 128.81162344 -76.1875 121.4375 C-70.23727137 110.8006102 -64.26644909 100.15174334 -57.359375 90.1015625 C-55.76364691 87.63460355 -54.38473662 85.0910278 -53 82.5 C-50.77683477 78.34090019 -48.35690664 74.45819084 -45.6953125 70.5703125 C-43.54778559 67.3143846 -41.55569879 63.97693216 -39.5625 60.625 C-33.96299846 51.2245046 -28.05985 42.05854539 -21.96875 32.96875 C-20.11049023 30.16661226 -18.29662986 27.34194178 -16.5 24.5 C-11.23128433 16.1759104 -5.79486025 7.96793284 0 0 Z " fill="#C8C8C8" transform="translate(934,1596)"/>
<path d="M0 0 C0.66 0 1.32 0 2 0 C2.32572998 0.60658447 2.65145996 1.21316895 2.98706055 1.83813477 C9.18994608 13.37509071 15.45254987 24.86878988 21.9375 36.25 C25.59789592 42.68051182 29.14588367 49.10947883 32.375 55.76953125 C34.66473976 60.32148986 37.11545134 64.78107009 39.5625 69.25 C40.06950439 70.17731934 40.57650879 71.10463867 41.09887695 72.06005859 C43.33283879 76.1419935 45.57077014 80.22166781 47.81787109 84.29638672 C49.63389434 87.59053498 51.44228986 90.88878434 53.25 94.1875 C53.82306885 95.22100586 54.3961377 96.25451172 54.98657227 97.31933594 C55.51178467 98.28000977 56.03699707 99.24068359 56.578125 100.23046875 C57.04637695 101.08020264 57.51462891 101.92993652 57.99707031 102.80541992 C59 105 59 105 59 108 C56.9375 109.8046875 56.9375 109.8046875 54 111.875 C48.84200328 115.59207982 43.85803096 119.47373884 38.9375 123.5 C38.25260498 124.05977539 37.56770996 124.61955078 36.86206055 125.19628906 C35.52098145 126.29378342 34.18054728 127.39206642 32.84082031 128.49121094 C31.22786913 129.81323193 29.61039507 131.12973076 27.9921875 132.4453125 C21.4880491 137.73585073 15.07363186 143.12662036 8.69140625 148.56298828 C7.00707393 149.99399002 5.3165372 151.41737035 3.625 152.83984375 C-3.71741404 159.04226793 -10.8028901 165.46663073 -17.7590332 172.10058594 C-18.39929443 172.7093457 -19.03955566 173.31810547 -19.69921875 173.9453125 C-20.26471436 174.48687988 -20.83020996 175.02844727 -21.4128418 175.58642578 C-23 177 -23 177 -26 179 C-26.21992436 172.03008945 -25.35587475 165.39343519 -24.375 158.5 C-24.0016721 155.80366762 -23.63006323 153.10716782 -23.26171875 150.41015625 C-23.11151024 149.31290977 -23.11151024 149.31290977 -22.95826721 148.1934967 C-22.13359165 142.11314146 -21.38063028 136.02524309 -20.64453125 129.93359375 C-17.42411584 103.34444488 -13.69716088 76.885089 -9.39709473 50.44903564 C-9.01756188 48.10831083 -8.64210795 45.76697872 -8.26855469 43.42529297 C-5.94230988 28.84731452 -3.48128068 14.3529896 0 0 Z " fill="#161616" transform="translate(979,1174)"/>
<path d="M0 0 C0.33 0.66 0.66 1.32 1 2 C0.34 1.67 -0.32 1.34 -1 1 C-0.67 0.67 -0.34 0.34 0 0 Z M-3 2 C-2.01 2.495 -2.01 2.495 -1 3 C-1.78246094 3.75925781 -2.56492187 4.51851562 -3.37109375 5.30078125 C-4.39349196 6.30441986 -5.41561299 7.30834089 -6.4375 8.3125 C-7.2119043 9.06176758 -7.2119043 9.06176758 -8.00195312 9.82617188 C-10.40590176 12.19869635 -11.91656793 13.74970379 -13 17 C-15.30075631 18.98781819 -17.72406548 20.76111327 -20.1640625 22.57421875 C-22.42527624 24.50839744 -24.15993011 26.27999902 -26.06030273 28.52856445 C-30.43382601 33.57557692 -35.1368817 38.26222371 -39.87109375 42.96875 C-40.793423 43.88966431 -41.71575226 44.81057861 -42.66603088 45.75939941 C-45.09188477 48.18147554 -47.52072852 50.60053079 -49.95025635 53.0189209 C-52.43939116 55.49773837 -54.92561895 57.97946797 -57.41210938 60.4609375 C-62.27193458 65.31010924 -67.13493178 70.15608863 -72 75 C-72 72 -72 72 -70.10400391 69.77929688 C-69.23694824 68.93431641 -68.36989258 68.08933594 -67.4765625 67.21875 C-66.538125 66.29449219 -65.5996875 65.37023438 -64.6328125 64.41796875 C-63.6306112 63.4448974 -62.6280025 62.47224548 -61.625 61.5 C-59.67610206 59.59735354 -57.73220723 57.68979078 -55.7890625 55.78125 C-54.91975098 54.93626953 -54.05043945 54.09128906 -53.15478516 53.22070312 C-50.86759778 50.99782974 -50.86759778 50.99782974 -49 48 C-48.34 48 -47.68 48 -47 48 C-46.75420197 47.42888489 -46.50840393 46.85776978 -46.25515747 46.26934814 C-44.78652753 43.6140378 -43.06995434 41.8300145 -40.91748047 39.69042969 C-40.07675995 38.84986023 -39.23603943 38.00929077 -38.36984253 37.14324951 C-37.46146637 36.24519592 -36.55309021 35.34714233 -35.6171875 34.421875 C-34.68778351 33.4953009 -33.75837952 32.56872681 -32.80081177 31.61407471 C-30.3359615 29.15684211 -27.86516334 26.70567639 -25.39306641 24.2557373 C-22.86909235 21.75226191 -20.35080612 19.24307937 -17.83203125 16.734375 C-12.89356403 11.81732475 -7.948788 6.90666212 -3 2 Z " fill="#292929" transform="translate(1114,1381)"/>
<path d="M0 0 C4.00085724 3.3495549 7.87634543 6.7997218 11.68798828 10.36132812 C17.24486165 15.55310446 22.85945397 20.4937595 29 25 C27.35 26.65 25.7 28.3 24 30 C2.31522453 5.16473165 2.31522453 5.16473165 0 0 Z " fill="#EAEAEA" transform="translate(1883,2403)"/>
<path d="M0 0 C0.33 0.66 0.66 1.32 1 2 C0.34 1.67 -0.32 1.34 -1 1 C-0.67 0.67 -0.34 0.34 0 0 Z M-3 2 C-2.34 2.33 -1.68 2.66 -1 3 C-1.78246094 3.75925781 -2.56492187 4.51851562 -3.37109375 5.30078125 C-4.39349196 6.30441986 -5.41561299 7.30834089 -6.4375 8.3125 C-6.95376953 8.81201172 -7.47003906 9.31152344 -8.00195312 9.82617188 C-10.40590176 12.19869635 -11.91656793 13.74970379 -13 17 C-14.49184942 18.30905364 -16.04562472 19.54799757 -17.625 20.75 C-25.34638812 26.88438345 -32.12714864 33.94573327 -39 41 C-39.66 40.67 -40.32 40.34 -41 40 C-28.46 27.46 -15.92 14.92 -3 2 Z " fill="#4D4D4D" transform="translate(1114,1381)"/>
<path d="M0 0 C5.39882424 4.59474404 10.71333087 9.27676273 16 14 C15.01 14.99 14.02 15.98 13 17 C11.01524404 14.73384576 9.03711912 12.46245847 7.0625 10.1875 C6.21655273 9.22360352 6.21655273 9.22360352 5.35351562 8.24023438 C4.81533203 7.61826172 4.27714844 6.99628906 3.72265625 6.35546875 C3.22515869 5.78465576 2.72766113 5.21384277 2.21508789 4.62573242 C1 3 1 3 0 0 Z " fill="#DADADA" transform="translate(1883,2403)"/>
<path d="M0 0 C0.99 0.66 1.98 1.32 3 2 C1.35 6.62 -0.3 11.24 -2 16 C-3.0826674 11.66933041 -2.70725583 9.96270145 -1.5625 5.75 C-1.27503906 4.67234375 -0.98757812 3.5946875 -0.69140625 2.484375 C-0.46324219 1.66453125 -0.23507813 0.8446875 0 0 Z " fill="#D3D3D3" transform="translate(2170,1152)"/>
<path d="M0 0 C0.99 0.33 1.98 0.66 3 1 C1.515 2.485 1.515 2.485 0 4 C-0.99 3.67 -1.98 3.34 -3 3 C-2.01 2.01 -1.02 1.02 0 0 Z " fill="#202020" transform="translate(1072,1422)"/>
<path d="M0 0 C1.32 0.33 2.64 0.66 4 1 C4.33 2.32 4.66 3.64 5 5 C3.68 4.67 2.36 4.34 1 4 C0.67 2.68 0.34 1.36 0 0 Z " fill="#F6F6F6" transform="translate(1866,1225)"/>
</svg>
