<?xml version="1.0" encoding="UTF-8"?>
<svg version="1.1" xmlns="http://www.w3.org/2000/svg" width="492" height="507">
<path d="M0 0 C1.25288818 -0.01015137 2.50577637 -0.02030273 3.79663086 -0.03076172 C13.43414307 0.06071123 22.19595887 1.51403205 30.875 5.875 C32.08349609 6.46087891 32.08349609 6.46087891 33.31640625 7.05859375 C35.58127032 8.62316717 36.31760388 9.90454827 37.3125 12.4375 C37.9725 12.4375 38.6325 12.4375 39.3125 12.4375 C42.92825995 21.25091487 41.37324286 28.71073909 38.3125 37.4375 C37.3225 37.4375 36.3325 37.4375 35.3125 37.4375 C35.56386719 36.42042969 35.56386719 36.42042969 35.8203125 35.3828125 C37.29917489 28.62497297 37.66155866 23.02962275 35.3125 16.4375 C32.35677664 11.82657157 27.38674745 10.75593694 22.3125 9.4375 C12.26023807 7.38981701 2.21081846 8.46095726 -7.8125 10.125 C-8.9041748 10.30434082 -9.99584961 10.48368164 -11.12060547 10.66845703 C-25.66030446 13.16629727 -39.16769626 17.55726059 -52.6875 23.4375 C-53.54166504 23.80584961 -54.39583008 24.17419922 -55.27587891 24.55371094 C-67.17492279 29.72576794 -78.73219592 35.36108899 -90.0625 41.6875 C-91.58496338 42.53634766 -91.58496338 42.53634766 -93.13818359 43.40234375 C-98.90974219 46.68344183 -104.36526207 50.20759922 -109.71337891 54.14355469 C-111.6875 55.4375 -111.6875 55.4375 -113.6875 55.4375 C-113.6875 56.0975 -113.6875 56.7575 -113.6875 57.4375 C-115.6675 58.4275 -115.6675 58.4275 -117.6875 59.4375 C-114.01467252 68.8083589 -109.59583337 77.76877267 -104.8059082 86.60742188 C-101.81090358 92.14900421 -98.99019839 97.76939706 -96.21337891 103.4230957 C-94.77167674 106.64518592 -94.77167674 106.64518592 -92.6875 109.4375 C-92.3471875 108.5403125 -92.006875 107.643125 -91.65625 106.71875 C-82.93567172 84.11630984 -71.24516976 62.70603481 -55.26953125 44.40234375 C-53.77893364 42.69074982 -52.30645197 40.96222318 -50.88671875 39.19140625 C-47.41782268 34.91338801 -43.50910995 31.50481475 -39.1875 28.125 C-38.38626709 27.49331909 -38.38626709 27.49331909 -37.56884766 26.84887695 C-30.13053134 21.2139608 -22.71618543 19.09641994 -13.43359375 19.546875 C-5.01755044 20.81153983 1.59892773 26.04233972 6.80078125 32.55078125 C36.70790772 75.35562652 34.41109887 148.92147816 26.83203125 198.5859375 C26.66058594 199.52695312 26.48914063 200.46796875 26.3125 201.4375 C26.09363739 202.83942231 25.8777586 204.24181211 25.6640625 205.64453125 C23.20042737 221.43837471 23.20042737 221.43837471 20.3125 228.4375 C19.88324219 229.49324219 19.45398438 230.54898438 19.01171875 231.63671875 C17.79848565 234.57923621 16.56506312 237.51155217 15.3125 240.4375 C14.6525 240.4375 13.9925 240.4375 13.3125 240.4375 C12.94125 241.5821875 12.94125 241.5821875 12.5625 242.75 C11.10569388 245.88213315 10.41776637 246.92467792 7.3125 248.4375 C4.10773485 249.19686202 1.51070237 249.26497141 -1.6875 248.4375 C-5.05336244 246.10376758 -7.88017334 243.41074431 -10.6875 240.4375 C-10.3575 239.4475 -10.0275 238.4575 -9.6875 237.4375 C-8.81738281 238.19546875 -8.81738281 238.19546875 -7.9296875 238.96875 C-3.14292983 243.01552651 -3.14292983 243.01552651 2.625 245.1875 C6.3060378 244.16023364 7.16652031 242.57457795 9.3125 239.4375 C10.32375055 236.93730871 11.17243543 234.56950961 11.9375 232 C12.14117187 231.37673828 12.34484375 230.75347656 12.5546875 230.11132812 C16.73341849 216.51705903 16.62872097 202.6194615 16.57324219 188.54492188 C16.56259022 185.33964817 16.57315188 182.13494347 16.5859375 178.9296875 C16.59517558 165.97527964 15.90267035 153.29168189 14.3125 140.4375 C14.16651367 139.19693848 14.02052734 137.95637695 13.87011719 136.67822266 C8.7444022 87.93953315 8.7444022 87.93953315 -14.6875 46.4375 C-18.58251251 45.11674223 -19.43345906 45.31923956 -23.3125 47.125 C-26.11467555 48.86952144 -27.82463081 50.69221909 -29.6875 53.4375 C-30.3475 53.4375 -31.0075 53.4375 -31.6875 53.4375 C-31.79191406 54.02789062 -31.89632812 54.61828125 -32.00390625 55.2265625 C-32.7954007 57.78648169 -33.77627435 58.88982533 -35.625 60.8125 C-50.44800155 77.21500171 -59.91466145 96.82245861 -67.98046875 117.1953125 C-68.36920166 118.17048828 -68.75793457 119.14566406 -69.15844727 120.15039062 C-69.90637667 122.037698 -70.64326694 123.92943257 -71.36694336 125.82617188 C-74.50767454 133.77575865 -78.64787408 141.65414662 -86.6875 145.4375 C-91.49721094 146.37794627 -95.4966906 145.91277605 -99.8125 143.5625 C-107.34322462 138.18978935 -111.20243681 129.72092209 -115.13574219 121.60620117 C-119.30672119 113.03328651 -123.88140575 104.67391666 -128.40820312 96.28564453 C-137.6875 79.06808671 -137.6875 79.06808671 -137.6875 76.4375 C-138.6775 76.4375 -139.6675 76.4375 -140.6875 76.4375 C-140.6875 77.0975 -140.6875 77.7575 -140.6875 78.4375 C-141.3475 78.4375 -142.0075 78.4375 -142.6875 78.4375 C-142.6875 79.0975 -142.6875 79.7575 -142.6875 80.4375 C-143.3475 80.4375 -144.0075 80.4375 -144.6875 80.4375 C-144.6875 81.0975 -144.6875 81.7575 -144.6875 82.4375 C-145.3475 82.4375 -146.0075 82.4375 -146.6875 82.4375 C-147.05875 83.2728125 -147.05875 83.2728125 -147.4375 84.125 C-148.91674818 86.86160913 -150.62217439 89.11400869 -152.6875 91.4375 C-153.3475 91.4375 -154.0075 91.4375 -154.6875 91.4375 C-154.94660156 92.00210938 -155.20570313 92.56671875 -155.47265625 93.1484375 C-156.6875 95.4375 -156.6875 95.4375 -158.30859375 97.5390625 C-164.86392055 106.64603264 -165.14815559 116.39586285 -166.08203125 127.29296875 C-166.82465771 135.69841444 -167.76759183 143.98511331 -173.6875 150.4375 C-177.81439073 152.5398783 -180.55348855 152.75659846 -184.875 151.375 C-189.51094478 149.33052145 -191.79024309 146.55385596 -193.765625 141.89453125 C-194.9763957 137.35414114 -195.05570817 133.11707027 -195.0625 128.4375 C-195.09923828 127.15166016 -195.09923828 127.15166016 -195.13671875 125.83984375 C-195.16024284 120.51555814 -194.38988649 116.06628514 -192.7890625 110.984375 C-190.29899404 102.85597739 -189.59280599 94.7902391 -188.9055481 86.34329224 C-188.53273907 81.80253566 -188.10761908 77.2666852 -187.68359375 72.73046875 C-187.60072617 71.83815048 -187.51785858 70.94583221 -187.43247986 70.026474 C-182.62037172 19.11611889 -182.62037172 19.11611889 -169 5.8125 C-164.18009986 3.81178674 -159.82989902 3.67339911 -154.6875 4.4375 C-150.6552088 6.41827463 -148.22051975 8.14504471 -146.6875 12.4375 C-146.0275 12.4375 -145.3675 12.4375 -144.6875 12.4375 C-141.67891362 17.76604077 -138.67985095 23.09982672 -135.6875 28.4375 C-135.04941406 29.57316406 -134.41132813 30.70882812 -133.75390625 31.87890625 C-133.21636719 32.84699219 -132.67882812 33.81507813 -132.125 34.8125 C-131.64933594 35.66585937 -131.17367187 36.51921875 -130.68359375 37.3984375 C-129.6875 39.4375 -129.6875 39.4375 -129.6875 41.4375 C-129.039021 41.0751123 -128.39054199 40.71272461 -127.72241211 40.33935547 C-115.59658704 33.59097686 -103.71534844 27.23390107 -90.6875 22.4375 C-88.78794382 21.63374221 -86.8920121 20.82135893 -85 20 C-57.95110295 8.71757235 -29.44434166 0.16918932 0 0 Z M-157.6875 41.4375 C-159.86558026 48.69776753 -160.28472507 55.89076965 -160.6875 63.4375 C-160.14480469 63.02757812 -159.60210937 62.61765625 -159.04296875 62.1953125 C-158.32753906 61.65648437 -157.61210937 61.11765625 -156.875 60.5625 C-155.81345703 59.76199219 -155.81345703 59.76199219 -154.73046875 58.9453125 C-153.08293703 57.72935219 -151.39125789 56.57333859 -149.6875 55.4375 C-151.45179199 50.46540438 -154.0814166 46.00311939 -156.6875 41.4375 C-157.0175 41.4375 -157.3475 41.4375 -157.6875 41.4375 Z " fill="#EBEBEB" transform="translate(318.6875,154.5625)"/>
<path d="M0 0 C-1.12052198 35.54759396 -1.12052198 35.54759396 -9 43 C-12.33905025 44.7010256 -14.41688047 45.31779011 -18.12109375 44.57421875 C-22.18427653 43.23970551 -24.86063349 41.87760179 -27 38 C-26.01 38 -25.02 38 -24 38 C-23.65026123 37.27369385 -23.30052246 36.5473877 -22.94018555 35.79907227 C-19.25421818 28.27081438 -15.19919784 21.07700288 -10.8125 13.9375 C-10.19697266 12.91978516 -9.58144531 11.90207031 -8.94726562 10.85351562 C-2.31735502 0 -2.31735502 0 0 0 Z " fill="#BCBCBC" transform="translate(154,262)"/>
<path d="M0 0 C0.33 0 0.66 0 1 0 C1.33 14.52 1.66 29.04 2 44 C3.65 44 5.3 44 7 44 C6.13275833 54.92724503 2.29152159 63.97514127 -2 74 C-2.66 74 -3.32 74 -4 74 C-4.2475 74.763125 -4.495 75.52625 -4.75 76.3125 C-6.20680612 79.44463315 -6.89473363 80.48717792 -10 82 C-13.20476515 82.75936202 -15.80179763 82.82747141 -19 82 C-22.36586244 79.66626758 -25.19267334 76.97324431 -28 74 C-27.67 73.01 -27.34 72.02 -27 71 C-26.12988281 71.75796875 -26.12988281 71.75796875 -25.2421875 72.53125 C-20.45542983 76.57802651 -20.45542983 76.57802651 -14.6875 78.75 C-11.0064622 77.72273364 -10.14597969 76.13707795 -8 73 C-6.98874945 70.49980871 -6.14006457 68.13200961 -5.375 65.5625 C-5.17132813 64.93923828 -4.96765625 64.31597656 -4.7578125 63.67382812 C-0.45702255 49.68247622 -0.60539077 35.11081993 -0.375 20.625 C-0.33672477 18.61717234 -0.29766789 16.60935942 -0.2578125 14.6015625 C-0.16287466 9.73449781 -0.07847488 4.86735682 0 0 Z " fill="#9F9E9E" transform="translate(336,321)"/>
<path d="M0 0 C0.8638129 1.45264038 1.71580454 2.9123163 2.5625 4.375 C3.03816406 5.18710938 3.51382813 5.99921875 4.00390625 6.8359375 C4.33261719 7.55007812 4.66132813 8.26421875 5 9 C4.67 9.66 4.34 10.32 4 11 C2.906875 11.309375 1.81375 11.61875 0.6875 11.9375 C-2.7881578 12.93896072 -4.53097551 13.44279606 -7 16 C-8.18873193 18.29548236 -9.08387718 20.57227454 -10 23 C-10.66 23 -11.32 23 -12 23 C-12.33 24.98 -12.66 26.96 -13 29 C-14.97566188 27.02433812 -15.89579072 25.47662906 -17.125 23 C-17.47820312 22.29875 -17.83140625 21.5975 -18.1953125 20.875 C-19 19 -19 19 -19 17 C-19.66 17 -20.32 17 -21 17 C-18.20277114 10.35473143 -7.42516348 0 0 0 Z " fill="#808080" transform="translate(200,214)"/>
<path d="M0 0 C14.54303166 -0.38458556 28.47551544 -0.65194335 41 8 C42.27734375 10.16015625 42.27734375 10.16015625 43 12 C43.66 12 44.32 12 45 12 C48.61575995 20.81341487 47.06074286 28.27323909 44 37 C43.01 37 42.02 37 41 37 C41.16757812 36.32195312 41.33515625 35.64390625 41.5078125 34.9453125 C42.98667489 28.18747297 43.34905866 22.59212275 41 16 C38.03595713 11.37609312 33.1463509 10.13542207 28 9 C22.35794306 8.12862449 16.68048401 7.55435263 11 7 C11.99 6.34 12.98 5.68 14 5 C13.34 4.01 12.68 3.02 12 2 C9.11404054 1.41518879 9.11404054 1.41518879 5.875 1.3125 C4.77929688 1.24675781 3.68359375 1.18101562 2.5546875 1.11328125 C1.71164062 1.07589844 0.86859375 1.03851563 0 1 C0 0.67 0 0.34 0 0 Z " fill="#E7E6E5" transform="translate(313,155)"/>
<path d="M0 0 C-0.165 0.639375 -0.33 1.27875 -0.5 1.9375 C-1.03926667 3.80826821 -1.03926667 3.80826821 -1 5 C-1.1094602 9.81624872 -1.2959011 13.06120147 -4.25 17 C-7.08273055 19.06016767 -8.52282776 19.91307069 -12 20 C-14.75 19.3125 -14.75 19.3125 -17 18 C-17.8125 15.875 -17.8125 15.875 -18 14 C-17.34 14 -16.68 14 -16 14 C-16 13.34 -16 12.68 -16 12 C-12.53846154 9 -12.53846154 9 -10 9 C-9.90589844 8.39671875 -9.81179687 7.7934375 -9.71484375 7.171875 C-8.83601348 4.50176772 -7.866928 3.80225504 -5.5625 2.25 C-4.63630859 1.60804688 -4.63630859 1.60804688 -3.69140625 0.953125 C-2 0 -2 0 0 0 Z " fill="#E7E6E6" transform="translate(150,287)"/>
<path d="M0 0 C0.33 0 0.66 0 1 0 C0.67 6.27 0.34 12.54 0 19 C-0.33 19 -0.66 19 -1 19 C-1.33 17.35 -1.66 15.7 -2 14 C-4.29371967 14.89078673 -4.29371967 14.89078673 -5.3125 17.75 C-8.06915441 23.05911219 -12.32016356 26.38984046 -17 30 C-16.41555147 25.54984189 -14.62133122 22.12272607 -12.375 18.3125 C-12.02107178 17.70253174 -11.66714355 17.09256348 -11.30249023 16.46411133 C-3.93132733 3.93132733 -3.93132733 3.93132733 0 0 Z " fill="#A8A8A8" transform="translate(153,262)"/>
<path d="M0 0 C25.48893076 -0.67404616 25.48893076 -0.67404616 34 5 C33.01 5.66 32.02 6.32 31 7 C31.33 7.66 31.66 8.32 32 9 C25.07 8.34 18.14 7.68 11 7 C11.99 6.34 12.98 5.68 14 5 C13.34 4.01 12.68 3.02 12 2 C9.11404054 1.41518879 9.11404054 1.41518879 5.875 1.3125 C4.77929688 1.24675781 3.68359375 1.18101562 2.5546875 1.11328125 C1.71164062 1.07589844 0.86859375 1.03851563 0 1 C0 0.67 0 0.34 0 0 Z " fill="#D1D1D0" transform="translate(313,155)"/>
<path d="M0 0 C0.75 2.125 0.75 2.125 1 4 C0.40525879 3.77836182 -0.18948242 3.55672363 -0.80224609 3.32836914 C-3.01241524 2.74634629 -3.01241524 2.74634629 -4.61572266 4.07983398 C-5.1266748 4.62969971 -5.63762695 5.17956543 -6.1640625 5.74609375 C-6.72867188 6.33583984 -7.29328125 6.92558594 -7.875 7.53320312 C-8.4525 8.16162109 -9.03 8.79003906 -9.625 9.4375 C-10.77944984 10.66950649 -11.93810236 11.89759266 -13.1015625 13.12109375 C-13.61025879 13.6720874 -14.11895508 14.22308105 -14.64306641 14.79077148 C-16 16 -16 16 -18 16 C-18 16.66 -18 17.32 -18 18 C-17.01 18.33 -16.02 18.66 -15 19 C-15.66 20.32 -16.32 21.64 -17 23 C-19.09440189 19.59659693 -19.25797575 16.95562822 -19 13 C-18.67 12.34 -18.34 11.68 -18 11 C-17.34 11 -16.68 11 -16 11 C-15.79375 9.948125 -15.5875 8.89625 -15.375 7.8125 C-14.09412512 3.30199061 -11.83147736 1.60540461 -8 -1 C-4.72784407 -2.4435982 -2.90322147 -2.10233279 0 0 Z " fill="#C5C5C5" transform="translate(206,226)"/>
<path d="M0 0 C1.75 2.375 1.75 2.375 3 5 C2.67 5.66 2.34 6.32 2 7 C1.01 6.34 0.02 5.68 -1 5 C-1.33 5.33 -1.66 5.66 -2 6 C-2.639375 6.103125 -3.27875 6.20625 -3.9375 6.3125 C-6.15617845 6.78570863 -6.15617845 6.78570863 -6.9375 8.8125 C-7.288125 9.534375 -7.63875 10.25625 -8 11 C-12.44444444 15 -12.44444444 15 -15 15 C-15.33 17.64 -15.66 20.28 -16 23 C-19 19.25 -19 19.25 -19 17 C-19.66 17 -20.32 17 -21 17 C-18.20277114 10.35473143 -7.42516348 0 0 0 Z " fill="#696969" transform="translate(200,214)"/>
<path d="M0 0 C1.48009643 0.97776067 2.95905144 1.9572494 4.4375 2.9375 C5.26121094 3.48277344 6.08492188 4.02804687 6.93359375 4.58984375 C9 6 9 6 10 7 C13.91422392 7.44479817 15.51173827 7.35509944 18.75 5 C19.4925 4.34 20.235 3.68 21 3 C21.66 3 22.32 3 23 3 C22.69209738 5.84809926 22.34521809 7.58286148 20.5 9.8125 C16.56754787 11.68041476 13.24501063 12.07809794 9 11 C5.54700192 8.74668403 2.59591489 6.20960635 0 3 C0 2.01 0 1.02 0 0 Z " fill="#B3B3B3" transform="translate(308,392)"/>
<path d="M0 0 C2.6875 0.3125 2.6875 0.3125 5 1 C5.33 2.32 5.66 3.64 6 5 C4.948125 5.0825 3.89625 5.165 2.8125 5.25 C-1.42420407 6.08344998 -3.05421401 6.89055923 -6 10 C-7.22896934 12.29999885 -8.10055754 14.53836801 -9 17 C-10.65 17 -12.3 17 -14 17 C-12.68556633 14.0678018 -11.27637874 12.23228424 -9 10 C-7.98963896 8.84229465 -6.98977302 7.67535547 -6 6.5 C-1.86424004 1.58878505 -1.86424004 1.58878505 0 0 Z " fill="#9F9D9E" transform="translate(199,220)"/>
<path d="M0 0 C0.33 0 0.66 0 1 0 C1.38386308 16.18622657 1.38386308 16.18622657 -1 24 C-1.66 24.66 -2.32 25.32 -3 26 C-2.95875 24.88625 -2.9175 23.7725 -2.875 22.625 C-2.58878141 18.95633975 -2.58878141 18.95633975 -5 17 C-4.01 17 -3.02 17 -2 17 C-1.67 16.01 -1.34 15.02 -1 14 C-2.32 14.33 -3.64 14.66 -5 15 C-4.67 14.34 -4.34 13.68 -4 13 C-3.01 13 -2.02 13 -1 13 C-2.05270463 11.84188612 -2.05270463 11.84188612 -4 11 C-3.67 8.69 -3.34 6.38 -3 4 C-2.01 3.67 -1.02 3.34 0 3 C0 2.01 0 1.02 0 0 Z " fill="#B4B2B3" transform="translate(151,273)"/>
<path d="M0 0 C3.3 0 6.6 0 10 0 C10.33 0.99 10.66 1.98 11 3 C11.66 3.66 12.32 4.32 13 5 C8.32798795 6.20568053 3.78503708 6.09382426 -1 6 C-0.34 5.67 0.32 5.34 1 5 C1 4.34 1 3.68 1 3 C0.34 2.67 -0.32 2.34 -1 2 C-0.67 1.34 -0.34 0.68 0 0 Z " fill="#F6F5F6" transform="translate(316,156)"/>
<path d="M0 0 C0.33 0 0.66 0 1 0 C0.67 6.27 0.34 12.54 0 19 C-0.33 19 -0.66 19 -1 19 C-1.33 16.03 -1.66 13.06 -2 10 C-2.66 10 -3.32 10 -4 10 C-4.33 10.99 -4.66 11.98 -5 13 C-5.66 13 -6.32 13 -7 13 C-6.66496985 7.63951758 -3.4126588 3.90710652 0 0 Z " fill="#888687" transform="translate(153,262)"/>
<path d="M0 0 C1.75 2.375 1.75 2.375 3 5 C2.67 5.66 2.34 6.32 2 7 C1.01 6.34 0.02 5.68 -1 5 C-1.33 5.33 -1.66 5.66 -2 6 C-2.639375 6.103125 -3.27875 6.20625 -3.9375 6.3125 C-6.18808618 6.79936868 -6.18808618 6.79936868 -7.0625 9 C-7.5265625 9.99 -7.5265625 9.99 -8 11 C-8.99 11.33 -9.98 11.66 -11 12 C-10.67 11.01 -10.34 10.02 -10 9 C-9.34 9 -8.68 9 -8 9 C-8 8.01 -8 7.02 -8 6 C-8.66 5.67 -9.32 5.34 -10 5 C-8.90241493 4.15801693 -7.79664683 3.32669329 -6.6875 2.5 C-6.07261719 2.0359375 -5.45773438 1.571875 -4.82421875 1.09375 C-3 0 -3 0 0 0 Z " fill="#757374" transform="translate(200,214)"/>
<path d="M0 0 C0.66 0 1.32 0 2 0 C2.33 0.33 2.66 0.66 3 1 C3.66 1.33 4.32 1.66 5 2 C4.67 2.66 4.34 3.32 4 4 C3.01 4.33 2.02 4.66 1 5 C-1.46689583 7.22622306 -3.56719651 9.13439302 -5.0625 12.125 C-6.27043966 14.54087933 -7.73080407 15.58175254 -10 17 C-10.66 17 -11.32 17 -12 17 C-12 17.66 -12 18.32 -12 19 C-12.66 18.67 -13.32 18.34 -14 18 C-13.38125 17.4225 -12.7625 16.845 -12.125 16.25 C-9.97835189 14.20350686 -9.97835189 14.20350686 -9.0625 12.0625 C-7.57412087 9.17329345 -5.28997765 7.28997765 -3 5 C-2.443125 4.071875 -1.88625 3.14375 -1.3125 2.1875 C-0.879375 1.465625 -0.44625 0.74375 0 0 Z " fill="#CFCECF" transform="translate(146,282)"/>
<path d="M0 0 C0.75 2.125 0.75 2.125 1 4 C-0.65 3.01 -2.3 2.02 -4 1 C-6.97 3.31 -9.94 5.62 -13 8 C-13.66 7.67 -14.32 7.34 -15 7 C-12.67864507 2.70549338 -10.5756643 0.04636362 -6 -1.8125 C-3.34984388 -2.06095214 -2.14678949 -1.5545717 0 0 Z " fill="#C0BFC0" transform="translate(206,226)"/>
<path d="M0 0 C0.66 0.99 1.32 1.98 2 3 C2.66 2.01 3.32 1.02 4 0 C4.33693273 6.96327638 3.3030887 12.43345544 1 19 C0.01 19 -0.98 19 -2 19 C-1.855625 18.29875 -1.71125 17.5975 -1.5625 16.875 C-0.43902645 11.13280185 0.2206715 5.84779485 0 0 Z " fill="#878787" transform="translate(356,173)"/>
<path d="M0 0 C0.33 0.66 0.66 1.32 1 2 C-0.08279641 5.24838923 -0.89036845 6.04282583 -3.4375 8.1875 C-4.05496094 8.71730469 -4.67242187 9.24710937 -5.30859375 9.79296875 C-7 11 -7 11 -9 11 C-8.38461538 5.46153846 -8.38461538 5.46153846 -6.4375 3.125 C-5.7259375 2.568125 -5.7259375 2.568125 -5 2 C-5 2.66 -5 3.32 -5 4 C-3.35 2.68 -1.7 1.36 0 0 Z " fill="#9A9A9A" transform="translate(151,271)"/>
<path d="M0 0 C1.485 0.99 1.485 0.99 3 2 C3 2.66 3 3.32 3 4 C3.66 4 4.32 4 5 4 C5.96070434 6.88211302 6.10581883 8.69850044 6.0625 11.6875 C6.05347656 12.49574219 6.04445313 13.30398437 6.03515625 14.13671875 C6.02355469 14.75160156 6.01195312 15.36648437 6 16 C4 13 4 13 4 10 C3.34 10 2.68 10 2 10 C1.34 6.7 0.68 3.4 0 0 Z " fill="#CAC9CA" transform="translate(353,163)"/>
<path d="M0 0 C0.33 0 0.66 0 1 0 C1.33 1.65 1.66 3.3 2 5 C3.65 5 5.3 5 7 5 C6.88637738 6.4800841 6.75877092 7.95910074 6.625 9.4375 C6.55539062 10.26121094 6.48578125 11.08492188 6.4140625 11.93359375 C6.27742188 12.61550781 6.14078125 13.29742187 6 14 C5.01 14.495 5.01 14.495 4 15 C4 12.69 4 10.38 4 8 C3.01 8.99 2.02 9.98 1 11 C-0.20272819 8.59454362 -0.10071472 7.05003047 -0.0625 4.375 C-0.05347656 3.55773437 -0.04445313 2.74046875 -0.03515625 1.8984375 C-0.02355469 1.27195312 -0.01195312 0.64546875 0 0 Z " fill="#C5C4C5" transform="translate(336,360)"/>
<path d="M0 0 C-0.99 1.485 -0.99 1.485 -2 3 C-4.08879781 3.06738057 -6.18099155 3.11401825 -8.26953125 3.0390625 C-13.19943877 2.9685345 -18.09619654 3.5353418 -23 4 C-16.67952449 -0.21365034 -7.48727403 -0.3482453 0 0 Z " fill="#8E8D8B" transform="translate(310,155)"/>
<path d="M0 0 C0.66 0.33 1.32 0.66 2 1 C1.01 2.485 1.01 2.485 0 4 C-0.66 4 -1.32 4 -2 4 C-2 3.34 -2 2.68 -2 2 C-1.34 2 -0.68 2 0 2 C0 1.34 0 0.68 0 0 Z M-4 4 C-3.34 4.33 -2.68 4.66 -2 5 C-2 5.66 -2 6.32 -2 7 C-1.67 7.99 -1.34 8.98 -1 10 C-1.9375 12.1875 -1.9375 12.1875 -3 14 C-4.83691257 10.21812119 -5.15837626 8.05431692 -4 4 Z " fill="#8B8B8B" transform="translate(189,229)"/>
<path d="M0 0 C2.31 0.66 4.62 1.32 7 2 C6.01 2.99 5.02 3.98 4 5 C4.33 5.66 4.66 6.32 5 7 C1.37 6.67 -2.26 6.34 -6 6 C-6 5.67 -6 5.34 -6 5 C-2.535 4.505 -2.535 4.505 1 4 C0.67 2.68 0.34 1.36 0 0 Z " fill="#9B9B98" transform="translate(340,157)"/>
<path d="M0 0 C1.10844919 3.32534757 0.84454356 5.62182575 0 9 C-1.32 8.34 -2.64 7.68 -4 7 C-4 5.35 -4 3.7 -4 2 C-2.68 1.34 -1.36 0.68 0 0 Z " fill="#F7F5F6" transform="translate(340,367)"/>
<path d="M0 0 C0.33 0 0.66 0 1 0 C0.67 6.27 0.34 12.54 0 19 C-0.33 19 -0.66 19 -1 19 C-1.22307542 16.7722603 -1.42788178 14.54268636 -1.625 12.3125 C-1.74101562 11.07113281 -1.85703125 9.82976562 -1.9765625 8.55078125 C-1.99953004 5.07119831 -1.54051631 3.07515279 0 0 Z " fill="#6A6768" transform="translate(153,262)"/>
<path d="M0 0 C11.8689733 -0.56122991 11.8689733 -0.56122991 16 3 C16 3.33 16 3.66 16 4 C14.02 4 12.04 4 10 4 C9.67 3.34 9.34 2.68 9 2 C6.87423218 1.53348793 6.87423218 1.53348793 4.4375 1.375 C3.61121094 1.30023438 2.78492188 1.22546875 1.93359375 1.1484375 C1.29550781 1.09945312 0.65742188 1.05046875 0 1 C0 0.67 0 0.34 0 0 Z " fill="#AEAEAE" transform="translate(153,159)"/>
<path d="M0 0 C1.48285242 0.95262034 2.96118201 1.91228405 4.4375 2.875 C5.67306641 3.67550781 5.67306641 3.67550781 6.93359375 4.4921875 C9 6 9 6 10 8 C8.203125 8.671875 8.203125 8.671875 6 9 C4.296875 7.890625 4.296875 7.890625 2.75 6.25 C1.96882813 5.45335937 1.96882813 5.45335937 1.171875 4.640625 C0 3 0 3 0 0 Z " fill="#6F6F6F" transform="translate(308,392)"/>
<path d="M0 0 C0.66 0.66 1.32 1.32 2 2 C2.99 1.67 3.98 1.34 5 1 C4.67 2.65 4.34 4.3 4 6 C3.34 6 2.68 6 2 6 C1.67 6.66 1.34 7.32 1 8 C1 7.34 1 6.68 1 6 C0.01 6.33 -0.98 6.66 -2 7 C-1.34 4.69 -0.68 2.38 0 0 Z " fill="#BFBCBE" transform="translate(330,389)"/>
<path d="M0 0 C0.99 0.33 1.98 0.66 3 1 C2.01 1.33 1.02 1.66 0 2 C0 4.31 0 6.62 0 9 C-3.16115776 7.63016497 -3.9927092 7.0109362 -6 4 C-5.01 4 -4.02 4 -3 4 C-2.67 3.01 -2.34 2.02 -2 1 C-1.34 0.67 -0.68 0.34 0 0 Z " fill="#B4B2B2" transform="translate(133,296)"/>
<path d="M0 0 C0.99 0 1.98 0 3 0 C2.34 1.32 1.68 2.64 1 4 C0.34 4 -0.32 4 -1 4 C-1 4.66 -1 5.32 -1 6 C-0.01 6.33 0.98 6.66 2 7 C1.34 8.32 0.68 9.64 0 11 C-1.84651134 7.88401212 -2.38079379 5.61754103 -2 2 C-1.34 1.34 -0.68 0.68 0 0 Z " fill="#AEAEAE" transform="translate(189,238)"/>
<path d="M0 0 C0.33 0.99 0.66 1.98 1 3 C-2.3 6.3 -5.6 9.6 -9 13 C-9 8.86218946 -7.28490393 7.79080004 -4.5 4.8125 C-3.6646875 3.91144531 -2.829375 3.01039063 -1.96875 2.08203125 C-0.99421875 1.05142578 -0.99421875 1.05142578 0 0 Z " fill="#D6D5D6" transform="translate(202,226)"/>
<path d="M0 0 C0.99 0.33 1.98 0.66 3 1 C2.34 1 1.68 1 1 1 C0.9175 1.61875 0.835 2.2375 0.75 2.875 C0 5 0 5 -2.0625 6.25 C-3.0215625 6.62125 -3.0215625 6.62125 -4 7 C-4.33 5.68 -4.66 4.36 -5 3 C-4.01 2.34 -3.02 1.68 -2 1 C-1.34 1.33 -0.68 1.66 0 2 C0 1.34 0 0.68 0 0 Z " fill="#CECDCE" transform="translate(286,207)"/>
<path d="M0 0 C0.33 0 0.66 0 1 0 C1.10832169 2.08218362 1.18573541 4.16599129 1.25 6.25 C1.29640625 7.41015625 1.3428125 8.5703125 1.390625 9.765625 C0.93035506 13.57666013 -0.05148444 14.65511755 -3 17 C-2.86722656 16.27554687 -2.73445313 15.55109375 -2.59765625 14.8046875 C-1.69718291 9.87508895 -0.80218034 4.94677877 0 0 Z " fill="#A09D9E" transform="translate(334,372)"/>
<path d="M0 0 C0.66 0.33 1.32 0.66 2 1 C0.95125002 3.62187494 0.35068687 4.79371361 -2.125 6.25 C-2.74375 6.4975 -3.3625 6.745 -4 7 C-4.33 5.68 -4.66 4.36 -5 3 C-2.625 1.4375 -2.625 1.4375 0 0 Z " fill="#CFCECE" transform="translate(239,290)"/>
<path d="M0 0 C0.33 0.66 0.66 1.32 1 2 C3.01669827 3.13350534 3.01669827 3.13350534 5 4 C3.79180633 7.624581 3.19658087 7.40170957 0 9 C0 6.03 0 3.06 0 0 Z " fill="#F8F6F7" transform="translate(337,359)"/>
<path d="M0 0 C0.66 0.33 1.32 0.66 2 1 C-0.31 3.64 -2.62 6.28 -5 9 C-5.66 8.67 -6.32 8.34 -7 8 C-5.08864614 4.46399535 -3.37357234 2.21027154 0 0 Z " fill="#B1B1B1" transform="translate(198,225)"/>
<path d="M0 0 C0.66 0.33 1.32 0.66 2 1 C1.67 1.66 1.34 2.32 1 3 C0.34 3 -0.32 3 -1 3 C-1.2475 3.78375 -1.495 4.5675 -1.75 5.375 C-3.15389099 8.32317108 -4.00675737 8.9024777 -7 10 C-5.75 6.5625 -5.75 6.5625 -4 3 C-1.8125 2.0625 -1.8125 2.0625 0 2 C0 1.34 0 0.68 0 0 Z " fill="#8B8A8B" transform="translate(198,218)"/>
<path d="M0 0 C3.0625 0.25 3.0625 0.25 6 1 C6.33 1.66 6.66 2.32 7 3 C5.35 2.67 3.7 2.34 2 2 C2.99 3.32 3.98 4.64 5 6 C3.35 5.67 1.7 5.34 0 5 C0 4.34 0 3.68 0 3 C-0.66 2.67 -1.32 2.34 -2 2 C-1.34 1.34 -0.68 0.68 0 0 Z " fill="#C3C2C0" transform="translate(345,160)"/>
<path d="M0 0 C0 1.98 0 3.96 0 6 C-1.65 6.66 -3.3 7.32 -5 8 C-3.91891892 0 -3.91891892 0 0 0 Z " fill="#F0EEEF" transform="translate(336,384)"/>
<path d="M0 0 C0.33 0.66 0.66 1.32 1 2 C-1.66666667 4.66666667 -4.33333333 7.33333333 -7 10 C-7.66 9.67 -8.32 9.34 -9 9 C-7.87895467 7.68412059 -6.75303035 6.37239647 -5.625 5.0625 C-4.99851562 4.33160156 -4.37203125 3.60070312 -3.7265625 2.84765625 C-2 1 -2 1 0 0 Z " fill="#B9B8B8" transform="translate(275,187)"/>
<path d="M0 0 C0.33 0.66 0.66 1.32 1 2 C0.0625 4.125 0.0625 4.125 -1 6 C-2.65 6 -4.3 6 -6 6 C-4.95125002 3.37812506 -4.35068687 2.20628639 -1.875 0.75 C-1.25625 0.5025 -0.6375 0.255 0 0 Z " fill="#A6A6A6" transform="translate(191,231)"/>
<path d="M0 0 C-0.33 2.64 -0.66 5.28 -1 8 C-4 4.25 -4 4.25 -4 2 C-4.66 1.67 -5.32 1.34 -6 1 C-3.92446352 0.4465236 -2.15634036 0 0 0 Z " fill="#515151" transform="translate(185,229)"/>
<path d="M0 0 C1.32 0.66 2.64 1.32 4 2 C1.03 4.475 1.03 4.475 -2 7 C-1.125 2.25 -1.125 2.25 0 0 Z " fill="#AFAFAF" transform="translate(138,285)"/>
<path d="M0 0 C0.99 0 1.98 0 3 0 C3.66 1.32 4.32 2.64 5 4 C3.02 4.99 3.02 4.99 1 6 C0.67 4.02 0.34 2.04 0 0 Z " fill="#BAB9BA" transform="translate(155,215)"/>
<path d="M0 0 C-0.66 0 -1.32 0 -2 0 C-1.67 1.32 -1.34 2.64 -1 4 C-2.32 4 -3.64 4 -5 4 C-5 3.34 -5 2.68 -5 2 C-5.66 1.67 -6.32 1.34 -7 1 C-3.375 -1.125 -3.375 -1.125 0 0 Z " fill="#F4F2F3" transform="translate(155,162)"/>
</svg>
